<svg width="58" height="96" viewBox="0 0 58 96" fill="none" xmlns="http://www.w3.org/2000/svg">
<path d="M26.5197 26.5197C26.0313 27.0082 25.0869 26.5655 24.6118 26.5197C18.5371 26.7086 13.1454 23.8811 9.15789 19.2697C8.41763 23.9384 4.31375 27.4432 0 28.8092C4.0123 30.6942 8.49204 33.6648 9.15789 38.5395C10.0355 37.8507 10.6709 37.1047 11.4951 36.2977C12.3193 35.4907 13.0843 34.9336 14.0745 34.2982C15.0647 33.6629 15.9195 33.1726 17.1272 32.7719C18.3349 32.3713 19.2278 31.9248 20.6682 31.734C22.1087 31.5432 23.1237 31.4974 24.8026 31.2895C26.4816 31.0815 27.1513 31.6691 26.7105 33.5789C26.2698 35.4888 26.7773 35.6166 26.287 37.7343C25.7947 39.8502 24.7836 42.3457 23.6102 44.2155C22.4388 46.0871 20.7445 47.2547 19.2697 48.8421C22.6467 52.6617 23.0607 57.5383 24.2303 62.5789C25.3998 67.6196 26.0599 73.328 26.9032 78.6034C27.7446 83.8787 28.3322 89.8332 29 95.2039C30.4863 87.3949 31.133 78.3973 32.625 70.5921C34.1189 62.7888 34.4795 55.163 38.7303 48.4605C33.0257 44.618 31.2838 37.7611 31.2895 31.2895C38.1178 30.8907 44.5398 33.2546 49.0329 38.5395C49.6797 33.7163 54.064 30.8011 58 28.8092C53.8484 27.2238 49.7007 23.9422 49.0329 19.2697C46.7797 21.5211 45.2896 22.9844 42.4888 24.5527C39.6861 26.1229 35.9066 26.2679 32.625 26.5197C31.568 26.6018 31.4574 26.8422 31.4803 25.7566C31.589 20.4316 32.5754 15.9061 36.0592 11.8289C36.5896 11.2089 37.1658 10.6346 37.7763 10.1118C38.1579 9.90388 38.4899 9.52612 38.7303 9.15789C34.1113 8.24211 30.8297 4.12487 29 0C27.5538 4.31757 23.9288 8.17151 19.4605 9.15789C20.218 10.0546 21.0155 10.8559 21.8931 11.6859C22.7707 12.5158 23.4843 13.4449 24.0547 14.4847C24.6252 15.5226 25.3616 16.7132 25.6078 17.8922C25.8558 19.0694 26.5655 20.7636 26.5197 21.9408C26.4759 23.118 27.3859 25.6536 26.5197 26.5197Z" fill="white"/>
</svg>
